<svg id="Layer_1" data-name="Layer 1" xmlns="http://www.w3.org/2000/svg" viewBox="0 0 215 186.2"><defs><style>.cls-1{fill:#fff;}.cls-2{fill:red;}</style></defs><title>triangle_mh</title><polygon class="cls-1" points="17.32 10 197.68 10 107.5 166.19 17.32 10"/><path class="cls-2" d="M771.36,311.25,698.5,437.45l-72.86-126.2H771.36m34.64-20H591l107.5,186.2L806,291.25Z" transform="translate(-591 -291.25)"/><path class="cls-2" d="M696.51,318.57a16.86,16.86,0,0,0-7.4,1.76,19.86,19.86,0,0,0-7.2,6.35c-.14.21-.35.52-.46.65a23.78,23.78,0,0,0-2.8,5.82,19.82,19.82,0,0,0-.92,3.79,14.9,14.9,0,0,0-.26,4.83,26.63,26.63,0,0,0,2,6.82,34,34,0,0,0,1.72,3.34c.2.32.7,1.18,1.11,1.91.72,1.3,1.8,3.05,2.65,4.32,1.2,1.8,4.52,6.57,5,7.12l.49.62-.17.33c-.09.18-.44.83-.79,1.44s-1.29,2.4-2.1,4-1.73,3.35-2.06,3.95c-.68,1.28-2.24,4.51-2.86,5.93-.23.54-.58,1.34-.77,1.77-.34.77-1.48,4-1.48,4.13a10.75,10.75,0,0,0,.84,1.13c.47.57,1,1.26,1.2,1.53s.73,1,1.19,1.58l1.77,2.29c4,5.17,3.94,5.15,4,5s.31-.58.58-1.11,1.94-3.94,3.74-7.55l4.46-9c.66-1.34,1.26-2.49,1.34-2.56s.15-.13.28.06,1.57,2.49,2.12,3.42l2.06,3.44c1,1.57,2.33,3.85,3.06,5.06l2.65,4.39,1.56,2.58a1.32,1.32,0,0,0,.27.38,1.29,1.29,0,0,0,.24-.32c.1-.17.78-1.21,1.5-2.31s2-3,2.78-4.3,1.91-3,2.45-3.77a13.45,13.45,0,0,0,1-1.61,1.12,1.12,0,0,0-.14-.36c-.08-.12-.35-.71-.62-1.31-.75-1.71-.88-2-1.94-4a135.81,135.81,0,0,0-9-14.71,9.25,9.25,0,0,1-.65-1.07c-.07-.2,0-.27,1.6-2.82.92-1.43,2.12-3.3,2.68-4.15,1.16-1.8,2.36-3.72,2.83-4.56s1.56-3,1.92-3.88a26.44,26.44,0,0,0,2-9,8,8,0,0,0-.16-2.23,25.58,25.58,0,0,0-4.63-11,15,15,0,0,0-3.21-3.64c-.66-.51-2.72-1.86-3.43-2.26a17.84,17.84,0,0,0-5.56-2,21.59,21.59,0,0,0-2.93-.29Zm3.85,10.85a16.44,16.44,0,0,1,6.76,2.33,5.12,5.12,0,0,1,1.45,1.08c.08.13.06.24-.32,1.32a47.77,47.77,0,0,1-4.12,8.83c-.83,1.38-3.13,4.85-4.59,6.91-.59.83-1.3,1.86-1.58,2.28a6.38,6.38,0,0,1-.57.77s-.81-1-1.75-2.14-2.07-2.58-2.52-3.13a22.64,22.64,0,0,1-2.32-3.36,45.52,45.52,0,0,1-4.41-9.24c-.41-1.17-.49-1.46-.44-1.58a12.26,12.26,0,0,1,3.2-2.25,18.5,18.5,0,0,1,8-1.95A27.44,27.44,0,0,1,700.36,329.42Z" transform="translate(-591 -291.25)"/></svg>